<?xml version="1.0" standalone="no"?><!-- Generator: Gravit.io --><svg xmlns="http://www.w3.org/2000/svg" xmlns:xlink="http://www.w3.org/1999/xlink" style="isolation:isolate" viewBox="0 0 16 16" width="16" height="16"><defs><clipPath id="_clipPath_FBl3Yum2grc1Bio5SkJx7WHZAZw4MISw"><rect width="16" height="16"/></clipPath></defs><g clip-path="url(#_clipPath_FBl3Yum2grc1Bio5SkJx7WHZAZw4MISw)"><rect width="16" height="16" style="fill:rgb(0,0,0)"/><rect x="1" y="1" width="2" height="14" transform="matrix(1,0,0,1,0,0)" fill="rgb(255,197,52)"/><rect x="14" y="1" width="1" height="14" transform="matrix(1,0,0,1,0,0)" fill="rgb(255,197,52)"/><rect x="4" y="12" width="1" height="3" transform="matrix(1,0,0,1,0,0)" fill="rgb(255,197,52)"/><rect x="6" y="10" width="1" height="5" transform="matrix(1,0,0,1,0,0)" fill="rgb(255,197,52)"/><rect x="8" y="12" width="1" height="3" transform="matrix(1,0,0,1,0,0)" fill="rgb(255,197,52)"/><rect x="10" y="10" width="1" height="5" transform="matrix(1,0,0,1,0,0)" fill="rgb(255,197,52)"/><rect x="12" y="12" width="1" height="3" transform="matrix(1,0,0,1,0,0)" fill="rgb(255,197,52)"/><rect x="3" y="1" width="3.5" height="2" transform="matrix(1,0,0,1,0,0)" fill="rgb(255,197,52)"/></g></svg>